<?xml version="1.0" encoding="UTF-8" standalone="no"?> <svg width="64" height="64" viewBox="0 0 64 64" fill="none" xmlns="http://www.w3.org/2000/svg">
<path d="M11.037 18.074L19.812 60H33V14.931C31.2402 14.7066 29.6046 13.9043 28.3502 12.6498C27.0957 11.3953 26.2933 9.75983 26.069 8H14.7L11.037 18.074ZM29 17H31V19H29V17ZM29 21H31V23H29V21ZM29 25H31V27H29V25ZM15 13C15 12.7348 15.1053 12.4804 15.2929 12.2929C15.4804 12.1054 15.7348 12 16 12H24C24.2652 12 24.5196 12.1054 24.7071 12.2929C24.8946 12.4804 25 12.7348 25 13V17C25 18.3261 24.4732 19.5979 23.5355 20.5355C22.5978 21.4732 21.3261 22 20 22C18.6739 22 17.4021 21.4732 16.4645 20.5355C15.5268 19.5979 15 18.3261 15 17V13Z" fill="black"/>
<path d="M35 45.414V58.586L50.086 43.5L43.5 36.914L35 45.414Z" fill="black"/>
<path d="M46.0003 34.4143L44.9142 35.5004L51.5002 42.0864L52.5863 41.0003L46.0003 34.4143Z" fill="black"/>
<path d="M20 20C20.7956 20 21.5587 19.6839 22.1213 19.1213C22.6839 18.5587 23 17.7956 23 17V14H17V17C17 17.7956 17.3161 18.5587 17.8787 19.1213C18.4413 19.6839 19.2044 20 20 20Z" fill="black"/>
<path d="M33 8H28.09C28.2995 9.22597 28.8844 10.3567 29.7638 11.2362C30.6433 12.1156 31.774 12.7005 33 12.91V8Z" fill="black"/>
<path d="M19 4H15V6H19V4Z" fill="black"/>
<path d="M33 4H29V6H33V4Z" fill="black"/>
<path d="M27 4H21V6H27V4Z" fill="black"/>
</svg>
