<svg width="375" height="200" viewBox="0 0 375 200" fill="none" xmlns="http://www.w3.org/2000/svg">
<path d="M138.723 159.865C140.584 155.015 140.853 150.612 139.325 150.03C137.796 149.448 135.048 152.908 133.187 157.757C131.326 162.607 131.056 167.01 132.585 167.592C134.114 168.174 136.861 164.714 138.723 159.865Z" fill="#192E35"/>
<path d="M137.14 176.02C138.81 165.771 131.821 156.113 121.531 154.45C111.24 152.787 101.544 159.747 99.8737 169.997C98.2038 180.247 105.192 189.904 115.483 191.567C125.774 193.231 135.47 186.27 137.14 176.02Z" fill="#192E35"/>
<path d="M115.64 187.764H109.905V197.998H115.64V187.764Z" fill="#192E35"/>
<path d="M127.109 187.764H121.374V197.998H127.109V187.764Z" fill="#192E35"/>
<path d="M114.684 199.902C117.323 199.902 119.463 199.103 119.463 198.117C119.463 197.131 117.323 196.332 114.684 196.332C112.044 196.332 109.905 197.131 109.905 198.117C109.905 199.103 112.044 199.902 114.684 199.902Z" fill="#192E35"/>
<path d="M126.153 199.664C128.793 199.664 130.932 198.865 130.932 197.879C130.932 196.893 128.793 196.094 126.153 196.094C123.514 196.094 121.374 196.893 121.374 197.879C121.374 198.865 123.514 199.664 126.153 199.664Z" fill="#192E35"/>
<path d="M119.174 174.672C122.736 174.568 125.538 171.607 125.434 168.06C125.329 164.513 122.357 161.722 118.795 161.826C115.234 161.93 112.431 164.89 112.536 168.438C112.641 171.985 115.613 174.776 119.174 174.672Z" fill="white"/>
<path d="M118.985 170.391C120.172 170.391 121.135 169.432 121.135 168.249C121.135 167.066 120.172 166.107 118.985 166.107C117.797 166.107 116.834 167.066 116.834 168.249C116.834 169.432 117.797 170.391 118.985 170.391Z" fill="#192E35"/>
<path d="M100.196 155.524C98.6715 148.725 103.544 141.855 111.078 140.179C118.613 138.504 125.957 142.657 127.481 149.456C129.005 156.255 124.012 158.762 116.477 160.438C108.942 162.114 101.72 162.323 100.196 155.524Z" fill="#E6E6E6"/>
<path d="M105.773 168.313C106.474 166.841 103.225 163.843 98.5149 161.618C93.8051 159.393 89.4185 158.784 88.7172 160.256C88.016 161.729 91.2656 164.726 95.9754 166.951C100.685 169.176 105.072 169.786 105.773 168.313Z" fill="#192E35"/>
<path d="M109.235 179.792C109.235 181.632 113.992 185.265 119.27 185.265C124.549 185.265 129.499 180.085 129.499 178.245C129.499 176.404 124.549 178.602 119.27 178.602C113.992 178.602 109.235 177.951 109.235 179.792Z" fill="white"/>
<path d="M251.266 121.915L230.762 142.071L184.424 187.613L183.486 188.534L178.261 193.668L167.308 182.89L166.344 181.942L146.317 162.24H146.313L139.896 155.923L136.105 152.191L124.814 141.085L123.288 139.583L105.291 121.876C101.716 118.316 98.6854 114.252 96.2972 109.814C96.078 109.417 95.8719 109.015 95.6703 108.613C91.4024 100.138 89.5763 90.6505 90.3947 81.2041C91.2132 71.7576 94.6442 62.7219 100.307 55.1002C105.969 47.4785 113.642 41.569 122.473 38.0278C131.304 34.4867 140.947 33.4525 150.332 35.04H150.337C150.503 35.0662 150.665 35.0924 150.832 35.1273C152.593 35.4367 154.335 35.8404 156.052 36.3366C160.545 37.6301 164.839 39.5293 168.816 41.9813C169.232 42.2388 169.644 42.5008 170.052 42.7671C172.967 44.6854 175.679 46.8926 178.147 49.3548L178.301 49.202L178.454 49.3548C179.95 47.8658 181.535 46.4691 183.201 45.1725C183.565 44.8888 183.933 44.6094 184.301 44.3387C189.938 40.199 196.364 37.2484 203.185 35.6676C210.007 34.0867 217.08 33.9088 223.973 35.1447C225.735 35.4541 227.48 35.8592 229.198 36.3584C229.772 36.5199 230.342 36.6946 230.907 36.8823C231.363 37.0307 231.819 37.1835 232.27 37.3494C236.029 38.6877 239.617 40.4606 242.961 42.6317C243.693 43.1076 244.414 43.6053 245.126 44.1248C251.149 48.4855 256.151 54.0947 259.788 60.566C263.426 67.0374 265.611 74.2171 266.195 81.6106C266.779 89.0041 265.746 96.4358 263.169 103.394C260.592 110.352 256.531 116.671 251.266 121.915Z" fill="#F2735E"/>
<path opacity="0.15" d="M230.762 142.071L184.424 187.613L183.486 188.534L178.261 193.668L167.308 182.89L166.344 181.942L146.317 162.24C149.534 161.494 154.479 162.52 156.289 163.41C160.58 165.519 164.108 168.981 168.465 170.954C172.356 172.703 176.702 173.182 180.883 172.321C188.693 170.688 194.738 164.672 200.067 158.752C205.397 152.828 210.845 146.472 218.336 143.726C222.285 142.276 226.528 141.949 230.762 142.071Z" fill="black"/>
<path d="M264.451 50.1972C258.075 43.8284 250.137 39.2307 241.426 36.8603C240.848 36.6988 240.274 36.5547 239.691 36.4194C237.184 35.823 234.636 35.4158 232.068 35.2014C231.621 35.1578 231.174 35.1272 230.723 35.1054C228.47 34.9635 226.211 34.9722 223.96 35.1316C211.628 35.9534 199.996 41.1316 191.156 49.7345L190.999 49.5773L190.841 49.7345C185.065 44.1215 178.057 39.9246 170.372 37.4759C169.938 37.3362 169.499 37.2008 169.061 37.0742C163.142 35.3643 156.967 34.7067 150.819 35.1316C150.648 35.1403 150.477 35.1534 150.31 35.1708C139.037 36.0317 128.355 40.5388 119.891 48.0057C119.094 48.7042 118.309 49.4376 117.546 50.1972C110.381 57.3468 105.462 66.4197 103.388 76.3081C101.315 86.1964 102.177 96.4721 105.87 105.88C106.023 106.291 106.19 106.697 106.365 107.103C108.973 113.298 112.772 118.926 117.546 123.67L134.605 140.443L135.947 141.766L172.861 178.057L173.812 178.995L183.508 188.53L190.998 195.895L264.451 123.666C274.219 113.916 279.704 100.705 279.704 86.9315C279.704 73.1581 274.219 59.9471 264.451 50.1972ZM263.526 122.736L190.999 194.052L184.446 187.609L174.956 178.279L174.005 177.345L137.81 141.753L136.49 140.456L118.475 122.74C113.851 118.146 110.165 112.702 107.623 106.71C107.448 106.304 107.281 105.898 107.128 105.492C103.504 96.3123 102.648 86.2794 104.663 76.6223C106.679 66.9652 111.479 58.1034 118.475 51.1227C119.291 50.3107 120.125 49.5337 120.978 48.7915H120.983C129.125 41.6945 139.338 37.3856 150.122 36.498C151.555 36.3758 152.99 36.3146 154.426 36.3146C154.965 36.3146 155.5 36.3234 156.039 36.3408C160.444 36.4759 164.812 37.1803 169.035 38.4363C169.469 38.5629 169.903 38.6983 170.332 38.8423C174.9 40.3252 179.23 42.4557 183.188 45.1681C185.765 46.9279 188.173 48.9212 190.381 51.1227L190.845 51.5855L190.999 51.4327L191.152 51.5855L191.617 51.1227C196.527 46.2263 202.396 42.3875 208.859 39.8447C215.321 37.3018 222.24 36.1092 229.184 36.3408C229.741 36.3583 230.298 36.3845 230.854 36.4238C231.301 36.45 231.748 36.4805 232.191 36.5242C235.017 36.7766 237.816 37.2658 240.559 37.9867C241.146 38.1351 241.729 38.2966 242.307 38.4756C250.717 41.0085 258.324 45.6694 264.385 52.0034C270.447 58.3374 274.757 66.1282 276.894 74.6159C279.032 83.1035 278.924 91.998 276.581 100.432C274.238 108.865 269.74 116.55 263.526 122.736Z" fill="#192E35"/>
<path opacity="0.15" d="M161.684 38.3185C158.87 40.5319 155.85 42.575 154.023 45.6004C152.677 47.8355 152.094 50.4331 151.66 53C150.819 57.9943 150.459 63.1108 148.811 67.8998C147.167 72.6889 143.959 77.264 139.203 79.0495C136.254 80.154 133.001 80.0929 129.859 79.879C122.105 79.3551 114.299 77.9712 107.321 74.5704C103.42 72.667 99.6369 70.1001 95.3022 69.8163C94.42 69.7598 93.5343 69.8082 92.6636 69.9604C96.4459 58.2007 104.361 48.1948 114.954 41.78C125.548 35.3651 138.109 32.972 150.332 35.04H150.337C150.503 35.0662 150.665 35.0924 150.832 35.1273C152.593 35.4367 154.335 35.8404 156.052 36.3366C157.967 36.8881 159.847 37.5499 161.684 38.3185Z" fill="black"/>
<path d="M38.0297 176.734C40.0712 177.449 42.2632 177.628 44.3944 177.254C46.5256 176.88 48.5241 175.966 50.1976 174.599C54.4595 171.036 55.7957 165.167 56.8829 159.732L60.0987 143.656L53.3661 148.273C48.5243 151.594 43.5735 155.021 40.2211 159.83C36.8687 164.64 35.4054 171.205 38.0989 176.41L38.0297 176.734Z" fill="#E6E6E6"/>
<path d="M38.6052 196.197C37.9238 191.253 37.2231 186.246 37.7011 181.249C38.1256 176.812 39.4849 172.477 42.2522 168.923C43.7212 167.041 45.5085 165.427 47.534 164.156C48.0622 163.824 48.5483 164.658 48.0225 164.989C44.5178 167.195 41.807 170.452 40.281 174.292C38.5956 178.562 38.325 183.216 38.6154 187.752C38.791 190.494 39.1633 193.219 39.5384 195.941C39.568 196.064 39.5495 196.194 39.4868 196.304C39.4241 196.414 39.3217 196.496 39.2005 196.534C39.0767 196.567 38.9449 196.55 38.8334 196.487C38.722 196.424 38.64 196.32 38.6052 196.197H38.6052Z" fill="#F2F2F2"/>
<path d="M45.1687 187.449C46.0443 188.774 47.2478 189.853 48.6634 190.581C50.0789 191.308 51.6588 191.661 53.2507 191.604C57.342 191.41 60.7528 188.566 63.8232 185.866L72.9047 177.88L66.8943 177.593C62.5719 177.387 58.138 177.195 54.0211 178.523C49.9042 179.85 46.1073 183.045 45.3545 187.29L45.1687 187.449Z" fill="#E6E6E6"/>
<path d="M36.6794 199.039C39.9593 193.259 43.7636 186.835 50.5614 184.781C52.4515 184.212 54.4334 184.008 56.4003 184.181C57.0202 184.234 56.8654 185.186 56.2466 185.133C52.9496 184.86 49.6589 185.727 46.9286 187.588C44.3012 189.369 42.2556 191.846 40.5241 194.472C39.4636 196.08 38.5136 197.757 37.5634 199.432C37.2598 199.967 36.3722 199.58 36.6794 199.039H36.6794Z" fill="#F2F2F2"/>
<path d="M131.533 52.0022C141.959 52.0022 150.41 43.5845 150.41 33.2008C150.41 22.817 141.959 14.3993 131.533 14.3993C121.108 14.3993 112.656 22.817 112.656 33.2008C112.656 43.5845 121.108 52.0022 131.533 52.0022Z" fill="#192E35"/>
<path d="M128.666 47.9563H122.931V58.19H128.666V47.9563Z" fill="#192E35"/>
<path d="M140.135 47.9563H134.401V58.19H140.135V47.9563Z" fill="#192E35"/>
<path d="M127.71 60.094C130.349 60.094 132.489 59.2948 132.489 58.309C132.489 57.3232 130.349 56.524 127.71 56.524C125.071 56.524 122.931 57.3232 122.931 58.309C122.931 59.2948 125.071 60.094 127.71 60.094Z" fill="#192E35"/>
<path d="M139.18 59.8559C141.819 59.8559 143.959 59.0568 143.959 58.071C143.959 57.0852 141.819 56.286 139.18 56.286C136.54 56.286 134.401 57.0852 134.401 58.071C134.401 59.0568 136.54 59.8559 139.18 59.8559Z" fill="#192E35"/>
<path d="M132.011 34.8667C135.574 34.8667 138.463 31.9897 138.463 28.4408C138.463 24.892 135.574 22.015 132.011 22.015C128.448 22.015 125.56 24.892 125.56 28.4408C125.56 31.9897 128.448 34.8667 132.011 34.8667Z" fill="white"/>
<path d="M135.727 31.2698C136.564 30.437 136.559 29.0817 135.717 28.2426C134.875 27.4035 133.514 27.3984 132.678 28.2312C131.841 29.064 131.846 30.4193 132.688 31.2584C133.53 32.0975 134.891 32.1026 135.727 31.2698Z" fill="#192E35"/>
<path d="M113.222 15.7159C111.698 8.91702 116.57 2.04703 124.105 0.37135C131.639 -1.30433 138.983 2.84888 140.507 9.64777C142.031 16.4467 137.038 18.9542 129.503 20.6299C121.969 22.3055 114.746 22.5148 113.222 15.7159Z" fill="#E6E6E6"/>
<path d="M283.329 161.305C284.592 160.268 282.926 156.18 279.61 152.175C276.293 148.169 272.581 145.763 271.319 146.8C270.056 147.837 271.721 151.924 275.038 155.93C278.355 159.935 282.067 162.342 283.329 161.305Z" fill="#192E35"/>
<path d="M296.781 191.376C307.072 189.712 314.06 180.055 312.39 169.805C310.72 159.556 301.024 152.595 290.733 154.258C280.442 155.922 273.454 165.579 275.124 175.829C276.794 186.078 286.49 193.039 296.781 191.376Z" fill="#192E35"/>
<path d="M302.359 187.573H296.624V197.806H302.359V187.573Z" fill="#192E35"/>
<path d="M290.89 187.573H285.155V197.806H290.89V187.573Z" fill="#192E35"/>
<path d="M297.58 199.71C300.22 199.71 302.359 198.911 302.359 197.925C302.359 196.94 300.22 196.14 297.58 196.14C294.941 196.14 292.801 196.94 292.801 197.925C292.801 198.911 294.941 199.71 297.58 199.71Z" fill="#192E35"/>
<path d="M286.111 199.472C288.75 199.472 290.89 198.673 290.89 197.687C290.89 196.701 288.75 195.902 286.111 195.902C283.471 195.902 281.332 196.701 281.332 197.687C281.332 198.673 283.471 199.472 286.111 199.472Z" fill="#192E35"/>
<path d="M300.366 162.786C294.415 157.888 291.107 153.397 295.562 148.027C300.018 142.656 308.454 142.274 314.405 147.172C320.356 152.07 321.569 160.394 317.114 165.764C312.658 171.134 306.317 167.684 300.366 162.786Z" fill="#F2735E"/>
<path d="M287.42 169.484C290.982 169.38 293.784 166.419 293.679 162.872C293.575 159.325 290.603 156.534 287.041 156.638C283.479 156.742 280.677 159.702 280.782 163.25C280.886 166.797 283.858 169.588 287.42 169.484Z" fill="white"/>
<path d="M284.963 163.611C286.151 163.611 287.114 162.652 287.114 161.469C287.114 160.286 286.151 159.327 284.963 159.327C283.775 159.327 282.812 160.286 282.812 161.469C282.812 162.652 283.775 163.611 284.963 163.611Z" fill="#192E35"/>
<path d="M277.479 168.353C276.172 169.654 275.249 173.873 277.086 175.703C278.924 177.534 284.325 175.587 285.631 174.285C286.938 172.984 283.655 172.822 281.817 170.991C279.98 169.161 278.785 167.052 277.479 168.353Z" fill="white"/>
<path d="M311.676 197.96C313.204 197.378 312.935 192.975 311.074 188.125C309.213 183.275 306.465 179.815 304.936 180.397C303.407 180.979 303.677 185.382 305.538 190.232C307.399 195.082 310.147 198.542 311.676 197.96Z" fill="#192E35"/>
<path d="M404.562 200H0.438312C0.322064 200 0.210578 199.954 0.128378 199.872C0.0461788 199.79 0 199.679 0 199.563C0 199.448 0.0461788 199.337 0.128378 199.255C0.210578 199.173 0.322064 199.127 0.438312 199.127H404.562C404.678 199.127 404.789 199.173 404.872 199.255C404.954 199.337 405 199.448 405 199.563C405 199.679 404.954 199.79 404.872 199.872C404.789 199.954 404.678 200 404.562 200Z" fill="#CCCCCC"/>
</svg>
